<svg width="400" height="300" viewBox="0 0 400 300" fill="none" xmlns="http://www.w3.org/2000/svg">
  <!-- Business Executive Template Preview -->
  <rect width="400" height="300" fill="#F9FAFB"/>
  
  <!-- Header with Navigation -->
  <rect width="400" height="50" fill="#1F2937"/>
  <rect x="30" y="15" width="100" height="8" rx="4" fill="#FFFFFF"/>
  <rect x="30" y="27" width="60" height="6" rx="3" fill="#D1D5DB"/>
  
  <rect x="280" y="17" width="25" height="4" rx="2" fill="#D1D5DB"/>
  <rect x="315" y="17" width="25" height="4" rx="2" fill="#D1D5DB"/>
  <rect x="350" y="17" width="25" height="4" rx="2" fill="#D1D5DB"/>
  
  <!-- Professional Profile Section -->
  <rect x="30" y="70" width="340" height="80" rx="8" fill="#FFFFFF" stroke="#E5E7EB"/>
  
  <!-- Profile Image Placeholder -->
  <circle cx="70" cy="110" r="25" fill="#6B7280"/>
  
  <!-- Profile Info -->
  <rect x="110" y="90" width="150" height="12" rx="6" fill="#1F2937"/>
  <rect x="110" y="108" width="100" height="8" rx="4" fill="#6B7280"/>
  <rect x="110" y="120" width="200" height="6" rx="3" fill="#9CA3AF"/>
  <rect x="110" y="130" width="180" height="6" rx="3" fill="#9CA3AF"/>
  
  <!-- Contact Info -->
  <rect x="280" y="90" width="70" height="6" rx="3" fill="#374151"/>
  <rect x="280" y="100" width="80" height="6" rx="3" fill="#374151"/>
  <rect x="280" y="110" width="60" height="6" rx="3" fill="#374151"/>
  
  <!-- Experience Section -->
  <rect x="30" y="170" width="340" height="110" rx="8" fill="#FFFFFF" stroke="#E5E7EB"/>
  
  <!-- Section Title -->
  <rect x="50" y="185" width="120" height="10" rx="5" fill="#1F2937"/>
  
  <!-- Experience Items -->
  <rect x="50" y="205" width="100" height="8" rx="4" fill="#374151"/>
  <rect x="50" y="217" width="80" height="6" rx="3" fill="#6B7280"/>
  <rect x="50" y="227" width="250" height="5" rx="2.5" fill="#9CA3AF"/>
  <rect x="50" y="235" width="220" height="5" rx="2.5" fill="#9CA3AF"/>
  
  <rect x="50" y="250" width="95" height="8" rx="4" fill="#374151"/>
  <rect x="50" y="262" width="75" height="6" rx="3" fill="#6B7280"/>
  
  <!-- Right sidebar -->
  <rect x="280" y="205" width="70" height="6" rx="3" fill="#1F2937"/>
  <rect x="280" y="215" width="60" height="4" rx="2" fill="#6B7280"/>
  <rect x="280" y="223" width="65" height="4" rx="2" fill="#6B7280"/>
  <rect x="280" y="231" width="55" height="4" rx="2" fill="#6B7280"/>
  
  <!-- Skills/Achievements -->
  <rect x="280" y="245" width="70" height="6" rx="3" fill="#1F2937"/>
  <rect x="280" y="255" width="50" height="4" rx="2" fill="#6B7280"/>
  <rect x="280" y="263" width="60" height="4" rx="2" fill="#6B7280"/>
  
  <!-- Professional accent lines -->
  <rect x="30" y="65" width="340" height="2" fill="#1F2937"/>
  <rect x="30" y="165" width="340" height="1" fill="#E5E7EB"/>
</svg>