<svg width="400" height="300" viewBox="0 0 400 300" fill="none" xmlns="http://www.w3.org/2000/svg">
  <!-- Creative Portfolio Template Preview -->
  <defs>
    <linearGradient id="creativeGrad1" x1="0%" y1="0%" x2="100%" y2="100%">
      <stop offset="0%" style="stop-color:#FF6B6B"/>
      <stop offset="100%" style="stop-color:#4ECDC4"/>
    </linearGradient>
    <linearGradient id="creativeGrad2" x1="0%" y1="0%" x2="100%" y2="0%">
      <stop offset="0%" style="stop-color:#45B7D1"/>
      <stop offset="100%" style="stop-color:#96CEB4"/>
    </linearGradient>
  </defs>
  
  <rect width="400" height="300" fill="#1A1A2E"/>
  
  <!-- Geometric Background Elements -->
  <circle cx="50" cy="50" r="20" fill="#FF6B6B" opacity="0.3"/>
  <polygon points="350,20 370,60 330,60" fill="#4ECDC4" opacity="0.4"/>
  <rect x="300" y="200" width="30" height="30" rx="15" fill="#45B7D1" opacity="0.3"/>
  
  <!-- Header -->
  <rect x="20" y="20" width="200" height="12" rx="6" fill="url(#creativeGrad1)"/>
  <rect x="20" y="40" width="120" height="6" rx="3" fill="#FFFFFF" opacity="0.7"/>
  
  <!-- Main Content Area -->
  <rect x="20" y="70" width="160" height="100" rx="15" fill="url(#creativeGrad2)" opacity="0.8"/>
  <rect x="200" y="70" width="180" height="60" rx="10" fill="#FF6B6B" opacity="0.6"/>
  <rect x="200" y="140" width="180" height="30" rx="8" fill="#4ECDC4" opacity="0.7"/>
  
  <!-- Creative Cards with Tilted Design -->
  <g transform="rotate(-5 150 220)">
    <rect x="30" y="200" width="80" height="60" rx="8" fill="#96CEB4"/>
  </g>
  
  <g transform="rotate(3 250 220)">
    <rect x="140" y="200" width="80" height="60" rx="8" fill="#FF6B6B"/>
  </g>
  
  <g transform="rotate(-2 350 220)">
    <rect x="250" y="200" width="80" height="60" rx="8" fill="#45B7D1"/>
  </g>
  
  <!-- Floating Elements -->
  <circle cx="380" cy="100" r="8" fill="#FFD93D" opacity="0.6"/>
  <circle cx="30" cy="180" r="5" fill="#6BCF7F" opacity="0.8"/>
  <rect x="350" y="250" width="12" height="12" rx="6" fill="#FF6B6B" opacity="0.7"/>
</svg>