<svg width="400" height="300" viewBox="0 0 400 300" fill="none" xmlns="http://www.w3.org/2000/svg">
  <!-- Developer Focus Template Preview -->
  <rect width="400" height="300" fill="#0D1117"/>
  
  <!-- Terminal Header -->
  <rect x="20" y="20" width="360" height="30" rx="6" fill="#21262D"/>
  <circle cx="35" cy="35" r="4" fill="#FF5F56"/>
  <circle cx="50" cy="35" r="4" fill="#FFBD2E"/>
  <circle cx="65" cy="35" r="4" fill="#27CA3F"/>
  
  <!-- Terminal Content -->
  <rect x="20" y="50" width="360" height="120" rx="6" fill="#0D1117" stroke="#30363D"/>
  
  <!-- Code Lines -->
  <rect x="30" y="65" width="6" height="8" fill="#79C0FF"/>
  <rect x="40" y="65" width="80" height="8" fill="#F85149"/>
  <rect x="125" y="65" width="40" height="8" fill="#A5A5A5"/>
  
  <rect x="30" y="80" width="12" height="8" fill="#79C0FF"/>
  <rect x="45" y="80" width="100" height="8" fill="#FFD43B"/>
  
  <rect x="30" y="95" width="8" height="8" fill="#79C0FF"/>
  <rect x="42" y="95" width="60" height="8" fill="#F85149"/>
  <rect x="107" y="95" width="30" height="8" fill="#A5A5A5"/>
  <rect x="142" y="95" width="50" height="8" fill="#FFD43B"/>
  
  <rect x="30" y="110" width="20" height="8" fill="#79C0FF"/>
  <rect x="55" y="110" width="70" height="8" fill="#7EE787"/>
  
  <rect x="30" y="125" width="6" height="8" fill="#79C0FF"/>
  <rect x="40" y="125" width="90" height="8" fill="#F85149"/>
  
  <rect x="30" y="140" width="14" height="8" fill="#79C0FF"/>
  <rect x="48" y="140" width="110" height="8" fill="#FFD43B"/>
  
  <!-- Projects Section -->
  <rect x="20" y="190" width="110" height="80" rx="8" fill="#21262D"/>
  <rect x="140" y="190" width="110" height="80" rx="8" fill="#21262D"/>
  <rect x="260" y="190" width="110" height="80" rx="8" fill="#21262D"/>
  
  <!-- Project Icons/Content -->
  <rect x="30" y="200" width="20" height="15" rx="3" fill="#238636"/>
  <rect x="55" y="200" width="60" height="6" fill="#F0F6FC"/>
  <rect x="30" y="210" width="90" height="4" fill="#7D8590"/>
  <rect x="30" y="220" width="70" height="4" fill="#7D8590"/>
  
  <!-- Language Tags -->
  <rect x="30" y="240" width="30" height="12" rx="6" fill="#3178C6"/>
  <rect x="65" y="240" width="25" height="12" rx="6" fill="#F7DF1E"/>
  
  <rect x="150" y="200" width="20" height="15" rx="3" fill="#E34F26"/>
  <rect x="175" y="200" width="60" height="6" fill="#F0F6FC"/>
  <rect x="140" y="210" width="90" height="4" fill="#7D8590"/>
  <rect x="140" y="220" width="70" height="4" fill="#7D8590"/>
  
  <rect x="150" y="240" width="25" height="12" rx="6" fill="#61DAFB"/>
  <rect x="180" y="240" width="30" height="12" rx="6" fill="#563D7C"/>
  
  <rect x="270" y="200" width="20" height="15" rx="3" fill="#F1502F"/>
  <rect x="295" y="200" width="60" height="6" fill="#F0F6FC"/>
  <rect x="260" y="210" width="90" height="4" fill="#7D8590"/>
  <rect x="260" y="220" width="70" height="4" fill="#7D8590"/>
  
  <rect x="270" y="240" width="28" height="12" rx="6" fill="#2F74C0"/>
  <rect x="303" y="240" width="25" height="12" rx="6" fill="#41CD52"/>
</svg>