<?xml version="1.0" encoding="UTF-8"?>
<svg version="1.1" xmlns="http://www.w3.org/2000/svg" width="1080" height="1080">
<path d="M0 0 C356.4 0 712.8 0 1080 0 C1080 356.4 1080 712.8 1080 1080 C723.6 1080 367.2 1080 0 1080 C0 723.6 0 367.2 0 0 Z " fill="#000000" transform="translate(0,0)"/>
<path d="M0 0 C1.65953552 -0.00691922 3.31906183 -0.01645243 4.97856903 -0.02836347 C9.52454381 -0.05336103 14.06976077 -0.04105414 18.61573792 -0.02244616 C23.52382485 -0.00885616 28.43178258 -0.029832 33.33984375 -0.04632568 C42.94905995 -0.07299536 52.55799484 -0.06724728 62.16722202 -0.04984984 C69.97730885 -0.03629552 77.78731689 -0.03446356 85.59741211 -0.04099274 C86.70928941 -0.04191214 87.82116672 -0.04283153 88.96673727 -0.04377879 C91.22554591 -0.04569716 93.48435452 -0.04764244 95.74316311 -0.04961434 C116.92044679 -0.06672065 138.09757461 -0.04705627 159.27483273 -0.01481214 C177.4430655 0.01199415 195.61106825 0.00733792 213.77929688 -0.02032471 C234.88116493 -0.05243904 255.98289639 -0.06507272 277.08478546 -0.04665112 C279.33525083 -0.04473984 281.58571623 -0.04285362 283.83618164 -0.04099274 C284.94343267 -0.04006708 286.0506837 -0.03914143 287.19148779 -0.03818773 C294.99154281 -0.03300875 302.79151114 -0.04174813 310.59155273 -0.05587006 C320.09819868 -0.07270355 329.6045474 -0.06813284 339.11115932 -0.03618559 C343.96099135 -0.02042436 348.81032797 -0.01422877 353.66015625 -0.03408051 C358.10162973 -0.05198568 362.54214953 -0.04209304 366.98353672 -0.01021519 C368.58838746 -0.00352398 370.1933191 -0.00689832 371.79811764 -0.02146992 C379.82363509 -0.08874054 386.42016385 -0.0018616 393.02753448 5.06725192 C398.65899714 10.71667494 400.83281555 16.41396988 400.87792969 24.30950928 C400.88289459 24.97009338 400.8878595 25.63067749 400.89297485 26.3112793 C400.90757749 28.49665371 400.91439682 30.68195542 400.91992188 32.86737061 C400.92567682 34.39091493 400.93143451 35.91445924 400.93719482 37.43800354 C400.94770074 40.63492164 400.95354545 43.83181463 400.95703125 47.02874756 C400.96250182 51.10959164 400.98650046 55.19009969 401.0150032 59.27083874 C401.03370517 62.4202824 401.03883928 65.56964653 401.04036713 68.71914101 C401.04337938 70.22252544 401.0513593 71.72590895 401.06455231 73.22923851 C401.13869198 82.3302967 400.98436396 89.62715358 395.96679688 97.51190186 C389.79855954 103.68013919 382.20747809 105.1888882 373.96679688 107.13690186 C372.73541992 107.43652832 371.50404297 107.73615479 370.23535156 108.04486084 C360.71353156 110.34157819 351.15636977 112.47318541 341.5871582 114.56219482 C334.24260774 116.17291227 326.94198096 117.91147112 319.65429688 119.76190186 C310.50590715 122.08469409 301.33349811 124.26570303 292.1328125 126.37127686 C282.96570847 128.46970539 273.80832762 130.60730807 264.65429688 132.76190186 C263.93590637 132.93082947 263.21751587 133.09975708 262.47735596 133.27380371 C255.00177559 135.03218096 247.52928622 136.80214662 240.06445312 138.60565186 C238.90115479 138.88666748 237.73785645 139.16768311 236.53930664 139.45721436 C234.37649455 139.98103158 232.21419325 140.50696383 230.05249023 141.03533936 C229.10639893 141.26479248 228.16030762 141.49424561 227.18554688 141.73065186 C226.36505859 141.93110107 225.54457031 142.13155029 224.69921875 142.33807373 C222.71679688 142.76190186 222.71679688 142.76190186 220.71679688 142.76190186 C220.69174072 142.19157227 220.66668457 141.62124268 220.64086914 141.03363037 C220.52523139 138.46364029 220.40236063 135.89404658 220.27929688 133.32440186 C220.23998047 132.42656982 220.20066406 131.52873779 220.16015625 130.60369873 C220.09731445 129.32269287 220.09731445 129.32269287 220.03320312 128.01580811 C219.99654541 127.22504883 219.9598877 126.43428955 219.92211914 125.61956787 C219.91116431 123.74788745 219.91116431 123.74788745 218.71679688 122.76190186 C216.60541787 122.66241993 214.49067402 122.63390548 212.37695312 122.63250732 C211.71517059 122.630755 211.05338806 122.62900269 210.37155151 122.62719727 C208.17410698 122.62277968 205.97674229 122.62571639 203.77929688 122.62908936 C202.25854476 122.62841629 200.73779276 122.62744624 199.21704102 122.62619019 C196.02586851 122.62471334 192.83472395 122.62686733 189.64355469 122.63153076 C185.54415157 122.63722805 181.44481392 122.63394897 177.34541321 122.6279583 C174.20397443 122.62435232 171.06255129 122.62549144 167.92111206 122.62808609 C166.40916944 122.62875526 164.89722541 122.62792729 163.38528442 122.62560654 C161.275698 122.6230794 159.166219 122.62692142 157.05664062 122.63250732 C155.85386475 122.63330292 154.65108887 122.63409851 153.41186523 122.63491821 C150.79932502 122.45502593 150.79932502 122.45502593 149.71679688 123.76190186 C149.56059132 125.17518133 149.46623514 126.59544775 149.40039062 128.01580811 C149.35849609 128.86981201 149.31660156 129.72381592 149.2734375 130.60369873 C149.23412109 131.50153076 149.19480469 132.39936279 149.15429688 133.32440186 C149.08952148 134.67695068 149.08952148 134.67695068 149.0234375 136.05682373 C148.91701545 138.2916867 148.814997 140.52666494 148.71679688 142.76190186 C137.80383734 140.5981254 126.99982165 138.12753745 116.21679688 135.38690186 C106.83042476 133.0020907 97.42924372 130.76197502 87.96679688 128.69940186 C78.52094937 126.64044693 69.14190561 124.40016597 59.77441406 122.01165771 C51.15549591 119.83136961 42.48798186 117.91317118 33.80297852 116.01629639 C25.21903485 114.12850784 16.69279207 112.05846259 8.17993164 109.87347412 C3.62408958 108.71045174 -0.9235225 107.60185164 -5.53320312 106.67205811 C-6.34974365 106.50528564 -7.16628418 106.33851318 -8.00756836 106.16668701 C-9.49891918 105.86863486 -10.9931204 105.58428907 -12.49047852 105.3180542 C-18.58884867 104.09616392 -23.07625884 101.41914194 -27.02539062 96.66424561 C-27.39921875 96.01584717 -27.77304687 95.36744873 -28.15820312 94.69940186 C-28.5475 94.04842529 -28.93679688 93.39744873 -29.33789062 92.72674561 C-31.34934684 88.54590893 -31.43120119 84.64898568 -31.49194336 80.04071045 C-31.50661903 79.03980377 -31.50661903 79.03980377 -31.52159119 78.01867676 C-31.55143896 75.81591755 -31.57290534 73.61321882 -31.59179688 71.41033936 C-31.5983687 70.65420979 -31.60494053 69.89808022 -31.6117115 69.11903763 C-31.6442647 65.11345541 -31.6687208 61.10789925 -31.68823242 57.10223389 C-31.70600773 53.80235661 -31.74077096 50.50333998 -31.79077148 47.20379639 C-31.85128287 43.20496504 -31.88174989 39.206928 -31.89140511 35.20766068 C-31.89991104 33.69189829 -31.91860794 32.17615434 -31.94814873 30.66065598 C-32.09600025 22.64134282 -31.82083838 15.93531916 -27.45277405 8.96762085 C-19.14007275 0.51641838 -11.39144247 -0.10343451 0 0 Z " fill="#FEFEFE" transform="translate(355.283203125,418.23809814453125)"/>
<path d="M0 0 C7.9672634 1.59345268 15.88884047 3.27544236 23.8125 5.0625 C24.47084839 5.21073212 25.12919678 5.35896423 25.80749512 5.51168823 C37.94926536 8.25083142 50.04130014 11.1794736 62.12908936 14.14645386 C73.11444147 16.84057691 84.11675221 19.4118275 95.16625977 21.83227539 C148.70270172 33.56756724 148.70270172 33.56756724 162 38 C162.03867187 39.39798828 162.03867187 39.39798828 162.078125 40.82421875 C162.61014933 52.78267471 163.96688187 65.23595347 173 74 C183.72051065 82.79989799 193.50913845 84.25235681 207 83 C210.48608894 82.20467643 213.05418688 81.00126382 216 79 C217.16595703 78.23623047 217.16595703 78.23623047 218.35546875 77.45703125 C227.20919143 71.14532356 231.1247497 63.62204717 233 53 C233.55584681 48.01354429 233.80383164 43.01243991 234 38 C242.59189471 35.30014399 251.26508662 33.2246699 260.0625 31.3125 C271.25375115 28.87917073 282.37930737 26.23451973 293.5 23.5 C305.36098858 20.58682497 317.23388361 17.78148764 329.1652832 15.16796875 C348.09295217 11.01881052 366.96648496 6.62051303 385.72924805 1.77734375 C387.10657104 1.42542969 387.10657104 1.42542969 388.51171875 1.06640625 C389.31053467 0.85959229 390.10935059 0.65277832 390.93237305 0.43969727 C393 0 393 0 396 0 C396 42.9 396 85.8 396 130 C265.32 130 134.64 130 0 130 C0 87.1 0 44.2 0 0 Z " fill="#FDFDFD" transform="translate(342,532)"/>
<path d="M0 0 C130.68 0 261.36 0 396 0 C396 23.03341289 396 23.03341289 391 29 C385.88487768 33.73368872 382.05788236 36.12164248 375.06308651 36.1398077 C373.78973192 36.14549894 372.51637733 36.15119018 371.20443624 36.15705389 C369.77805015 36.15834666 368.35166397 36.15953465 366.92527771 36.16062927 C365.42028755 36.16535783 363.91529867 36.17050841 362.41031128 36.17604691 C358.25923239 36.18998452 354.1081623 36.19754551 349.95706594 36.2040199 C346.40028932 36.21038196 342.84352721 36.22045337 339.28675961 36.23058056 C327.56546277 36.26393945 315.84415711 36.28543353 304.12282833 36.30378041 C301.07125415 36.30857386 298.01968032 36.31355738 294.96810651 36.31858563 C276.02561944 36.34955761 257.08312935 36.37624848 238.14062405 36.39300442 C233.75089449 36.39695405 229.36116499 36.40095702 224.97143555 36.4050293 C223.33482573 36.40654184 223.33482573 36.40654184 221.66515309 36.40808494 C203.99180752 36.4250905 186.31860201 36.4661966 168.64532482 36.51705229 C150.50738941 36.56881631 132.36952604 36.59794519 114.23151737 36.6052013 C104.04496005 36.60986535 93.85863199 36.62463523 83.67214775 36.6649456 C74.99614373 36.69923646 66.32041032 36.7131888 57.64434242 36.70052146 C53.21778662 36.69469216 48.79180317 36.6985772 44.36533356 36.7286911 C40.31034674 36.75605242 36.2563389 36.75555658 32.20133031 36.73318065 C30.7368914 36.72995795 29.27238695 36.73682506 27.808057 36.75497787 C19.92782742 36.84671918 14.15229387 36.53346472 7.73565441 31.69583279 C4.00855559 28.05424588 1.63703033 23.911091 0 19 C0 12.73 0 6.46 0 0 Z " fill="#FBFBFB" transform="translate(342,670)"/>
<path d="M0 0 C35.64 0 71.28 0 108 0 C108 11.88 108 23.76 108 36 C72.36 36 36.72 36 0 36 C0 24.12 0 12.24 0 0 Z " fill="#FBFBFB" transform="translate(486,374)"/>
<path d="M0 0 C17.82 0 35.64 0 54 0 C54.061875 5.56875 54.12375 11.1375 54.1875 16.875 C54.22846802 19.47930908 54.22846802 19.47930908 54.27026367 22.13623047 C54.38021132 33.86607811 53.81534976 43.29489581 45.21484375 52.08203125 C38.36138772 58.01685825 31.53210954 58.7184954 22.59375 58.44140625 C14.55161919 57.45362279 9.7326353 53.27441053 4.5078125 47.35546875 C0.50503551 41.10242593 -0.43958224 35.36562864 -0.29296875 28.125 C-0.28994751 27.40570312 -0.28692627 26.68640625 -0.28381348 25.9453125 C-0.26829441 23.29672589 -0.22641251 20.64834622 -0.1875 18 C-0.125625 12.06 -0.06375 6.12 0 0 Z " fill="#FEFEFE" transform="translate(513,549)"/>
</svg>
